<svg width="140" height="140" viewBox="0 0 140 140" fill="none" xmlns="http://www.w3.org/2000/svg">
<path d="M39.4625 67.2612C39.4625 68.985 39.6375 70.385 39.97 71.4175C40.3375 72.4412 40.81 73.5612 41.4575 74.7775C41.6641 75.0988 41.7763 75.4718 41.7812 75.8537C41.7812 76.3175 41.5012 76.79 40.9062 77.2538L37.9662 79.2138C37.6133 79.4685 37.1936 79.6145 36.7587 79.6338C36.2862 79.6338 35.8225 79.4063 35.3587 78.9863C34.7298 78.3095 34.1673 77.5741 33.6787 76.79C33.1582 75.8924 32.6765 74.9728 32.235 74.0338C28.6037 78.33 24.045 80.4825 18.55 80.4825C14.6387 80.4825 11.515 79.3537 9.23998 77.1138C6.95623 74.8737 5.79248 71.8813 5.79248 68.145C5.79248 64.1725 7.19248 60.9525 10.0275 58.52C12.8712 56.0875 16.6425 54.88 21.4375 54.88C23.0125 54.88 24.6487 55.02 26.3725 55.2475C28.0962 55.4838 29.8725 55.86 31.7275 56.28V52.8675C31.7275 49.315 30.9837 46.8388 29.54 45.395C28.0525 43.9425 25.5325 43.2425 21.945 43.2425C20.3175 43.2425 18.6462 43.435 16.9225 43.855C15.2099 44.2626 13.5285 44.7919 11.8912 45.4388C11.3626 45.6781 10.819 45.8827 10.2637 46.0513C10.0231 46.1307 9.77302 46.1778 9.51998 46.1912C8.86373 46.1912 8.53998 45.7188 8.53998 44.7388V42.4462C8.53998 41.7025 8.62748 41.1338 8.86373 40.8188C9.21633 40.3894 9.66629 40.0505 10.1762 39.83C11.795 38.99 13.755 38.29 16.0387 37.73C18.3137 37.1175 20.7375 36.8463 23.3012 36.8463C28.84 36.8463 32.8912 38.1063 35.4987 40.6263C38.0625 43.1463 39.3662 46.9787 39.3662 52.1237V67.2612H39.4537H39.4625ZM20.5537 74.3575C22.085 74.3575 23.6687 74.0775 25.3487 73.5175C27.02 72.9575 28.5162 71.925 29.7675 70.525C30.5178 69.6654 31.0597 68.6444 31.3512 67.5413C31.6312 66.4125 31.8237 65.065 31.8237 63.4725V61.5125C30.4105 61.1698 28.979 60.9069 27.5362 60.725C26.0854 60.5373 24.6242 60.4409 23.1612 60.4363C20.0375 60.4363 17.7537 61.0487 16.2225 62.3088C14.6825 63.5688 13.9475 65.345 13.9475 67.6813C13.9475 69.8688 14.4987 71.505 15.6625 72.6337C16.7825 73.7975 18.41 74.3575 20.5537 74.3575ZM57.9425 79.4062C57.1025 79.4062 56.5425 79.2663 56.175 78.9338C55.7987 78.6538 55.475 78.0062 55.195 77.1138L44.2575 41.0025C44.0418 40.3973 43.8979 39.7688 43.8287 39.13C43.8287 38.3863 44.205 37.9663 44.9487 37.9663H49.5162C50.3912 37.9663 51.0037 38.1063 51.3275 38.43C51.7037 38.71 51.9837 39.3663 52.2637 40.25L60.0862 71.1813L67.3487 40.25C67.5762 39.3225 67.8562 38.71 68.2237 38.43C68.7852 38.0861 69.4392 37.9241 70.0962 37.9663H73.815C74.7075 37.9663 75.3025 38.1063 75.6787 38.43C76.055 38.71 76.3787 39.3663 76.5625 40.25L83.9212 71.5575L91.9712 40.25C92.1205 39.5725 92.4431 38.9454 92.9075 38.43C93.4496 38.0864 94.087 37.924 94.7275 37.9663H99.0587C99.8025 37.9663 100.222 38.3425 100.222 39.13C100.222 39.3663 100.17 39.6025 100.135 39.8825C100.06 40.2797 99.9485 40.6692 99.8025 41.0463L88.5762 77.1575C88.2962 78.0938 87.9725 78.7063 87.605 78.9863C87.0766 79.3242 86.4549 79.4865 85.8287 79.45H81.83C80.9462 79.45 80.3425 79.31 79.9662 78.9863C79.59 78.6538 79.2662 78.05 79.0825 77.1138L71.8637 46.9875L64.6887 77.0788C64.4612 78.015 64.1812 78.6188 63.8137 78.9425C63.4375 79.275 62.7812 79.415 61.95 79.415H57.9425V79.4062ZM117.775 80.6663C115.359 80.6695 112.95 80.3875 110.6 79.8263C108.272 79.2663 106.461 78.6538 105.245 77.9538C104.501 77.5338 103.994 77.07 103.801 76.6413C103.623 76.2296 103.531 75.786 103.53 75.3375V72.9575C103.53 71.9775 103.897 71.505 104.597 71.505C104.883 71.5056 105.167 71.5529 105.437 71.645C105.717 71.7412 106.137 71.925 106.601 72.1175C108.176 72.8175 109.909 73.3775 111.72 73.7537C113.584 74.1213 115.395 74.3138 117.259 74.3138C120.199 74.3138 122.474 73.7975 124.057 72.7738C124.818 72.3132 125.443 71.6592 125.869 70.8783C126.295 70.0975 126.506 69.2178 126.481 68.3288C126.497 67.7285 126.394 67.1311 126.177 66.5709C125.961 66.0108 125.636 65.499 125.221 65.065C124.39 64.1725 122.806 63.3763 120.522 62.6325L113.767 60.5325C110.372 59.4563 107.852 57.8638 106.321 55.7638C104.822 53.8234 104.004 51.4432 103.994 48.9913C103.994 47.0313 104.414 45.2988 105.245 43.8025C106.085 42.315 107.205 41.0025 108.605 39.97C110.005 38.9025 111.58 38.1063 113.444 37.5463C115.307 36.9863 117.259 36.75 119.306 36.75C120.339 36.75 121.406 36.7938 122.43 36.9338C123.497 37.0738 124.477 37.2663 125.457 37.4588C126.385 37.6863 127.277 37.9138 128.109 38.2025C128.949 38.4825 129.596 38.7625 130.069 39.0425C130.618 39.3184 131.097 39.7165 131.469 40.2062C131.768 40.6618 131.912 41.202 131.88 41.7463V43.9425C131.88 44.9225 131.512 45.4388 130.812 45.4388C130.193 45.368 129.592 45.1778 129.045 44.8788C126.231 43.6312 123.18 43.0102 120.102 43.0588C117.451 43.0588 115.351 43.4788 113.907 44.3713C112.464 45.2463 111.72 46.6113 111.72 48.5275C111.72 49.8313 112.184 50.9513 113.12 51.8438C114.047 52.7275 115.771 53.6113 118.239 54.4075L124.854 56.5075C128.205 57.5838 130.629 59.08 132.072 60.9963C133.516 62.9125 134.207 65.1088 134.207 67.5413C134.207 69.5537 133.796 71.365 133 72.9575C132.176 74.5555 131.018 75.9579 129.605 77.07C128.161 78.2337 126.437 79.0825 124.434 79.6863C122.334 80.3425 120.146 80.6663 117.775 80.6663Z" fill="white"/>
<path fill-rule="evenodd" clip-rule="evenodd" d="M126.569 103.364C111.256 114.713 88.9961 120.741 69.8599 120.741C43.0411 120.741 18.8736 110.793 0.621128 94.2551C-0.822622 92.9426 0.481128 91.1663 2.19613 92.1988C21.9449 103.688 46.2961 110.653 71.4961 110.653C88.4799 110.653 107.152 107.1 124.337 99.8113C126.901 98.6476 129.089 101.491 126.569 103.364Z" fill="#FF9900"/>
<path fill-rule="evenodd" clip-rule="evenodd" d="M132.947 96.0751C130.996 93.5638 120.006 94.8676 115.027 95.4713C113.54 95.6638 113.304 94.3513 114.651 93.3713C123.401 87.2026 137.795 88.9789 139.466 91.0351C141.146 93.1351 139.002 107.573 130.804 114.485C129.552 115.561 128.345 115.01 128.896 113.61C130.76 108.973 134.907 98.5601 132.947 96.0838V96.0751Z" fill="#FF9900"/>
</svg>
