<svg width="88" height="88" viewBox="0 0 88 88" fill="none" xmlns="http://www.w3.org/2000/svg">
<g filter="url(#filter0_d_23199_329372)">
<rect x="12" y="8" width="64" height="64" rx="32" fill="url(#paint0_linear_23199_329372)"/>
</g>
<path opacity="0.4" fill-rule="evenodd" clip-rule="evenodd" d="M33.016 33.3764L31.349 36.7462C31.207 37.0334 31.4159 37.3698 31.7363 37.3698H36.8609C37.2235 37.3698 37.5475 37.1434 37.6722 36.803L40.0778 30.2362C40.03 30.2693 39.974 30.2955 39.9098 30.3124L35.718 31.4174L34.5894 35.5215C34.4541 36.0134 33.7412 36.0134 33.6059 35.5215L33.016 33.3764ZM36.715 38.2522C37.0678 38.2522 37.3851 38.4666 37.5167 38.7939L42.9034 52.1952L31.9765 38.9592C31.7439 38.6774 31.9443 38.2522 32.3096 38.2522H36.715ZM50.3286 38.2522C50.6358 38.2522 50.8448 38.5637 50.7284 38.8479L44.9208 53.0242C44.7743 53.3819 44.2678 53.3819 44.1213 53.0242L38.3138 38.8479C38.1973 38.5637 38.4063 38.2522 38.7135 38.2522H50.3286ZM56.7325 38.2522C57.0979 38.2522 57.2983 38.6774 57.0657 38.9592L46.1387 52.1952L51.5255 38.7939C51.657 38.4666 51.9744 38.2522 52.3271 38.2522H56.7325ZM52.1801 37.3698C51.8175 37.3698 51.4935 37.1434 51.3688 36.803L48.855 29.941C48.7517 29.659 48.9604 29.3604 49.2606 29.3604H52.8312C53.5705 29.3604 54.2457 29.7796 54.5736 30.4422L57.693 36.7462C57.8351 37.0333 57.6261 37.3698 57.3058 37.3698H52.1801ZM38.8351 37.3698C38.5349 37.3698 38.3262 37.0711 38.4295 36.7892L40.9433 29.9272C41.068 29.5867 41.392 29.3604 41.7546 29.3604H47.2875C47.6501 29.3604 47.9741 29.5867 48.0988 29.9272L50.6126 36.7892C50.7159 37.0711 50.5072 37.3698 50.207 37.3698H38.8351Z" fill="white"/>
<path fill-rule="evenodd" clip-rule="evenodd" d="M37.5155 38.7939C37.3839 38.4666 37.0666 38.2522 36.7138 38.2522H32.3084C31.9431 38.2522 31.7427 38.6774 31.9753 38.9592L42.9022 52.1952L37.5155 38.7939ZM50.7272 38.8479C50.8436 38.5637 50.6346 38.2522 50.3274 38.2522H38.7123C38.4052 38.2522 38.1961 38.5637 38.3126 38.8479L44.1201 53.0242C44.2666 53.3819 44.7731 53.3819 44.9196 53.0242L50.7272 38.8479ZM57.0645 38.9592C57.2971 38.6774 57.0967 38.2522 56.7314 38.2522H52.326C51.9732 38.2522 51.6559 38.4666 51.5243 38.7939L46.1376 52.1952L57.0645 38.9592ZM51.3676 36.803C51.4923 37.1434 51.8163 37.3698 52.1789 37.3698H57.3046C57.625 37.3698 57.8339 37.0333 57.6918 36.7462L54.5724 30.4422C54.2446 29.7796 53.5693 29.3604 52.8301 29.3604H49.2594C48.9592 29.3604 48.7505 29.659 48.8538 29.941L51.3676 36.803Z" fill="white"/>
<path d="M34.1086 26L34.9802 29.1232L38.2173 29.9641L34.9802 30.805L34.1086 33.9282L33.2371 30.805L30 29.9641L33.2371 29.1232L34.1086 26Z" fill="white"/>
<defs>
<filter id="filter0_d_23199_329372" x="0" y="0" width="88" height="88" filterUnits="userSpaceOnUse" color-interpolation-filters="sRGB">
<feFlood flood-opacity="0" result="BackgroundImageFix"/>
<feColorMatrix in="SourceAlpha" type="matrix" values="0 0 0 0 0 0 0 0 0 0 0 0 0 0 0 0 0 0 127 0" result="hardAlpha"/>
<feOffset dy="4"/>
<feGaussianBlur stdDeviation="6"/>
<feComposite in2="hardAlpha" operator="out"/>
<feColorMatrix type="matrix" values="0 0 0 0 0.572549 0 0 0 0 0.360784 0 0 0 0 0.941176 0 0 0 0.16 0"/>
<feBlend mode="normal" in2="BackgroundImageFix" result="effect1_dropShadow_23199_329372"/>
<feBlend mode="normal" in="SourceGraphic" in2="effect1_dropShadow_23199_329372" result="shape"/>
</filter>
<linearGradient id="paint0_linear_23199_329372" x1="44" y1="8" x2="44" y2="72" gradientUnits="userSpaceOnUse">
<stop stop-color="#AD7DFF"/>
<stop offset="1" stop-color="#925CF0"/>
</linearGradient>
</defs>
</svg>
