<svg width="88" height="88" viewBox="0 0 88 88" fill="none" xmlns="http://www.w3.org/2000/svg">
<g filter="url(#filter0_d_23199_329357)">
<rect x="12" y="8" width="64" height="64" rx="32" fill="url(#paint0_linear_23199_329357)"/>
</g>
<path d="M57.3307 37.0052C56.7841 37.0052 56.3307 36.5519 56.3307 36.0052V33.3385C56.3307 29.8985 54.1041 27.6719 50.6641 27.6719H37.3307C33.8907 27.6719 31.6641 29.8985 31.6641 33.3385V36.0052C31.6641 36.5519 31.2107 37.0052 30.6641 37.0052C30.1174 37.0052 29.6641 36.5519 29.6641 36.0052V33.3385C29.6641 28.7519 32.7441 25.6719 37.3307 25.6719H50.6641C55.2507 25.6719 58.3307 28.7519 58.3307 33.3385V36.0052C58.3307 36.5519 57.8774 37.0052 57.3307 37.0052Z" fill="white"/>
<path d="M50.6677 54.3333H37.3344C32.7477 54.3333 29.6677 51.2533 29.6677 46.6667V44C29.6677 43.4533 30.1211 43 30.6677 43C31.2144 43 31.6677 43.4533 31.6677 44V46.6667C31.6677 50.1067 33.8944 52.3333 37.3344 52.3333H50.6677C54.1077 52.3333 56.3344 50.1067 56.3344 46.6667V44C56.3344 43.4533 56.7877 43 57.3344 43C57.8811 43 58.3344 43.4533 58.3344 44V46.6667C58.3344 51.2533 55.2544 54.3333 50.6677 54.3333Z" fill="white"/>
<path d="M57.3344 41H30.6677C30.1211 41 29.6677 40.5467 29.6677 40C29.6677 39.4533 30.1211 39 30.6677 39H57.3344C57.8811 39 58.3344 39.4533 58.3344 40C58.3344 40.5467 57.8811 41 57.3344 41Z" fill="white"/>
<path opacity="0.4" d="M49.9987 35.9974H37.9987C37.6254 35.9974 37.332 35.7041 37.332 35.3307V32.6641C37.332 31.5707 38.2254 30.6641 39.332 30.6641H48.6654C49.772 30.6641 50.6654 31.5707 50.6654 32.6641V35.3307C50.6654 35.7041 50.372 35.9974 49.9987 35.9974Z" fill="white"/>
<path opacity="0.4" d="M49.9989 44H37.9989C37.6256 44 37.3323 44.2933 37.3323 44.6667V47.3333C37.3323 48.4267 38.2256 49.3333 39.3323 49.3333H48.6656C49.7723 49.3333 50.6656 48.4267 50.6656 47.3333V44.6667C50.6656 44.2933 50.3723 44 49.9989 44Z" fill="white"/>
<defs>
<filter id="filter0_d_23199_329357" x="0" y="0" width="88" height="88" filterUnits="userSpaceOnUse" color-interpolation-filters="sRGB">
<feFlood flood-opacity="0" result="BackgroundImageFix"/>
<feColorMatrix in="SourceAlpha" type="matrix" values="0 0 0 0 0 0 0 0 0 0 0 0 0 0 0 0 0 0 127 0" result="hardAlpha"/>
<feOffset dy="4"/>
<feGaussianBlur stdDeviation="6"/>
<feComposite in2="hardAlpha" operator="out"/>
<feColorMatrix type="matrix" values="0 0 0 0 0.364706 0 0 0 0 0.839216 0 0 0 0 0.862745 0 0 0 0.2 0"/>
<feBlend mode="normal" in2="BackgroundImageFix" result="effect1_dropShadow_23199_329357"/>
<feBlend mode="normal" in="SourceGraphic" in2="effect1_dropShadow_23199_329357" result="shape"/>
</filter>
<linearGradient id="paint0_linear_23199_329357" x1="44" y1="8" x2="44" y2="72" gradientUnits="userSpaceOnUse">
<stop stop-color="#69DBE1"/>
<stop offset="1" stop-color="#5DD6DC"/>
</linearGradient>
</defs>
</svg>
