<svg width="88" height="88" viewBox="0 0 88 88" fill="none" xmlns="http://www.w3.org/2000/svg">
<g filter="url(#filter0_d_23199_329333)">
<rect x="12" y="8" width="64" height="64" rx="32" fill="url(#paint0_linear_23199_329333)"/>
</g>
<path opacity="0.4" d="M38.1996 51.8785C38.1596 51.8785 38.1063 51.9052 38.0663 51.9052C35.4796 50.6252 33.3729 48.5052 32.0796 45.9185C32.0796 45.8785 32.1063 45.8252 32.1063 45.7852C33.7329 46.2652 35.4129 46.6252 37.0796 46.9052C37.3729 48.5852 37.7196 50.2518 38.1996 51.8785Z" fill="white"/>
<path opacity="0.4" d="M55.9197 45.9318C54.5997 48.5852 52.3997 50.7318 49.7197 52.0252C50.2264 50.3318 50.6531 48.6252 50.9331 46.9052C52.6131 46.6252 54.2664 46.2652 55.8931 45.7852C55.8797 45.8385 55.9197 45.8918 55.9197 45.9318Z" fill="white"/>
<path opacity="0.4" d="M56.0264 34.2793C54.3464 33.7727 52.6531 33.3593 50.9331 33.066C50.6531 31.346 50.2397 29.6393 49.7197 27.9727C52.4797 29.2927 54.7064 31.5193 56.0264 34.2793Z" fill="white"/>
<path opacity="0.4" d="M38.1988 28.123C37.7188 29.7497 37.3722 31.403 37.0922 33.083C35.3722 33.3497 33.6655 33.7763 31.9722 34.283C33.2655 31.603 35.4122 29.403 38.0655 28.083C38.1055 28.083 38.1588 28.123 38.1988 28.123Z" fill="white"/>
<path d="M48.6524 32.7841C45.559 32.4374 42.439 32.4374 39.3457 32.7841C39.679 30.9574 40.1057 29.1307 40.7057 27.3707C40.7324 27.2641 40.719 27.1841 40.7324 27.0774C41.7857 26.8241 42.8657 26.6641 43.999 26.6641C45.119 26.6641 46.2124 26.8241 47.2524 27.0774C47.2657 27.1841 47.2657 27.2641 47.2924 27.3707C47.8924 29.1441 48.319 30.9574 48.6524 32.7841Z" fill="white"/>
<path d="M36.7877 44.6524C34.9477 44.319 33.1344 43.8924 31.3744 43.2924C31.2677 43.2657 31.1877 43.279 31.0811 43.2657C30.8277 42.2124 30.6677 41.1324 30.6677 39.999C30.6677 38.879 30.8277 37.7857 31.0811 36.7457C31.1877 36.7324 31.2677 36.7324 31.3744 36.7057C33.1477 36.119 34.9477 35.679 36.7877 35.3457C36.4544 38.439 36.4544 41.559 36.7877 44.6524Z" fill="white"/>
<path d="M57.3346 39.999C57.3346 41.1324 57.1746 42.2124 56.9213 43.2657C56.8146 43.279 56.7346 43.2657 56.6279 43.2924C54.8546 43.879 53.0413 44.319 51.2146 44.6524C51.5613 41.559 51.5613 38.439 51.2146 35.3457C53.0413 35.679 54.8679 36.1057 56.6279 36.7057C56.7346 36.7324 56.8146 36.7457 56.9213 36.7457C57.1746 37.799 57.3346 38.879 57.3346 39.999Z" fill="white"/>
<path d="M48.6524 47.2148C48.319 49.0548 47.8924 50.8682 47.2924 52.6282C47.2657 52.7348 47.2657 52.8148 47.2524 52.9215C46.2124 53.1748 45.119 53.3348 43.999 53.3348C42.8657 53.3348 41.7857 53.1748 40.7324 52.9215C40.719 52.8148 40.7324 52.7348 40.7057 52.6282C40.119 50.8548 39.679 49.0548 39.3457 47.2148C40.8924 47.3882 42.439 47.5082 43.999 47.5082C45.559 47.5082 47.119 47.3882 48.6524 47.2148Z" fill="white"/>
<path d="M49.0191 45.0152C45.6843 45.4359 42.3183 45.4359 38.9835 45.0152C38.5628 41.6804 38.5628 38.3144 38.9835 34.9796C42.3183 34.5589 45.6843 34.5589 49.0191 34.9796C49.4398 38.3144 49.4398 41.6804 49.0191 45.0152Z" fill="white"/>
<defs>
<filter id="filter0_d_23199_329333" x="0" y="0" width="88" height="88" filterUnits="userSpaceOnUse" color-interpolation-filters="sRGB">
<feFlood flood-opacity="0" result="BackgroundImageFix"/>
<feColorMatrix in="SourceAlpha" type="matrix" values="0 0 0 0 0 0 0 0 0 0 0 0 0 0 0 0 0 0 127 0" result="hardAlpha"/>
<feOffset dy="4"/>
<feGaussianBlur stdDeviation="6"/>
<feComposite in2="hardAlpha" operator="out"/>
<feColorMatrix type="matrix" values="0 0 0 0 0.407843 0 0 0 0 0.776471 0 0 0 0 0.4 0 0 0 0.2 0"/>
<feBlend mode="normal" in2="BackgroundImageFix" result="effect1_dropShadow_23199_329333"/>
<feBlend mode="normal" in="SourceGraphic" in2="effect1_dropShadow_23199_329333" result="shape"/>
</filter>
<linearGradient id="paint0_linear_23199_329333" x1="44" y1="8" x2="44" y2="72" gradientUnits="userSpaceOnUse">
<stop stop-color="#7BDB79"/>
<stop offset="1" stop-color="#68C666"/>
</linearGradient>
</defs>
</svg>
