<svg width="48" height="48" viewBox="0 0 48 48" fill="none" xmlns="http://www.w3.org/2000/svg">
<rect opacity="0.3" width="48" height="48" rx="8" fill="#E6DBF9"/>
<path opacity="0.4" d="M29.834 31.5026H25.1673L19.9756 34.956C19.2056 35.4693 18.1673 34.9209 18.1673 33.9876V31.5026C14.6673 31.5026 12.334 29.1693 12.334 25.6693V18.6693C12.334 15.1693 14.6673 12.8359 18.1673 12.8359H29.834C33.334 12.8359 35.6673 15.1693 35.6673 18.6693V25.6693C35.6673 29.1693 33.334 31.5026 29.834 31.5026Z" fill="#925CF0"/>
<path d="M24.0011 24.1328C23.5228 24.1328 23.1261 23.7361 23.1261 23.2578V23.0129C23.1261 21.6595 24.1177 20.9945 24.4911 20.7378C24.9227 20.4462 25.0627 20.2479 25.0627 19.9445C25.0627 19.3612 24.5844 18.8828 24.0011 18.8828C23.4178 18.8828 22.9395 19.3612 22.9395 19.9445C22.9395 20.4229 22.5428 20.8195 22.0645 20.8195C21.5861 20.8195 21.1895 20.4229 21.1895 19.9445C21.1895 18.3929 22.4494 17.1328 24.0011 17.1328C25.5528 17.1328 26.8127 18.3929 26.8127 19.9445C26.8127 21.2745 25.8328 21.9395 25.4711 22.1845C25.0161 22.4878 24.8761 22.6862 24.8761 23.0129V23.2578C24.8761 23.7478 24.4794 24.1328 24.0011 24.1328Z" fill="#925CF0"/>
<path d="M24 27.0352C23.51 27.0352 23.125 26.6385 23.125 26.1602C23.125 25.6818 23.5217 25.2852 24 25.2852C24.4783 25.2852 24.875 25.6818 24.875 26.1602C24.875 26.6385 24.49 27.0352 24 27.0352Z" fill="#925CF0"/>
</svg>
