<svg width="33" height="44" viewBox="0 0 33 44" fill="none" xmlns="http://www.w3.org/2000/svg">
<path d="M8.06762 15.9556C8.06705 14.3605 8.5385 12.8004 9.42337 11.4692C10.3082 10.1381 11.5675 9.09459 13.0446 8.46846C14.5217 7.84232 16.1516 7.66117 17.7315 7.94752C19.3114 8.23387 20.7718 8.97509 21.931 10.079C23.0903 11.183 23.8973 12.601 24.2517 14.1568C24.6062 15.7125 24.4924 17.3375 23.9246 18.8296C23.3569 20.3216 22.3601 21.6151 21.0582 22.5491C19.7563 23.4831 18.2067 24.0165 16.6021 24.083C16.5155 24.0855 16.4332 24.1212 16.3724 24.1825C16.3116 24.2438 16.277 24.326 16.2757 24.4121V31.5123C16.2757 31.5584 16.285 31.6039 16.303 31.6463C16.3211 31.6887 16.3475 31.7271 16.3807 31.7592C16.414 31.7913 16.4533 31.8164 16.4965 31.8331C16.5397 31.8498 16.5859 31.8577 16.6322 31.8564C19.7853 31.7457 22.8358 30.7153 25.4031 28.8938C27.9704 27.0722 29.9408 24.5402 31.0685 21.6135C32.1962 18.6869 32.4312 15.4952 31.7443 12.4368C31.0573 9.37832 29.4788 6.58847 27.2057 4.4153C24.9326 2.24214 22.0655 0.781884 18.9622 0.216725C15.8588 -0.348433 12.6566 0.00652831 9.75507 1.23732C6.85353 2.46812 4.38114 4.52025 2.64635 7.13769C0.911558 9.75512 -0.00881378 12.822 6.3619e-05 15.9556V42.5815C-0.000144228 42.6565 0.0177448 42.7304 0.0522304 42.797C0.0867159 42.8637 0.136792 42.9212 0.19826 42.9646C0.259727 43.0081 0.330792 43.0363 0.405496 43.0468C0.480199 43.0574 0.556362 43.05 0.627596 43.0253L14.0568 38.3932C14.1358 38.3655 14.2042 38.3142 14.2527 38.2463C14.3013 38.1785 14.3275 38.0974 14.3279 38.0142V32.4746C14.3279 32.4395 14.3208 32.4047 14.3072 32.3724C14.2935 32.34 14.2734 32.3106 14.2482 32.286C14.2229 32.2614 14.193 32.242 14.1602 32.229C14.1273 32.2161 14.0922 32.2097 14.0568 32.2104H8.3337C8.29875 32.2104 8.26416 32.2035 8.23187 32.1903C8.19959 32.177 8.17026 32.1575 8.14555 32.133C8.12085 32.1084 8.10125 32.0793 8.08788 32.0472C8.0745 32.0152 8.06762 31.9808 8.06762 31.9461V15.9556Z" fill="#1976D2"/>
</svg>
