<svg width="48" height="48" viewBox="0 0 48 48" fill="none" xmlns="http://www.w3.org/2000/svg">
<rect opacity="0.3" width="48" height="48" rx="8" fill="#D5EAFF"/>
<path opacity="0.4" d="M22.25 21.375V26.625H25.75V21.375H22.25Z" fill="#1976D2"/>
<path d="M10.875 22.25V25.75C10.8771 26.4456 11.1543 27.112 11.6461 27.6039C12.138 28.0957 12.8044 28.3729 13.5 28.375V19.625C12.8044 19.6271 12.138 19.9043 11.6461 20.3961C11.1543 20.888 10.8771 21.5544 10.875 22.25V22.25Z" fill="#1976D2"/>
<path opacity="0.4" d="M18.75 31.875H17.875C17.1788 31.875 16.5111 31.5984 16.0188 31.1062C15.5266 30.6139 15.25 29.9462 15.25 29.25V18.75C15.25 18.0538 15.5266 17.3861 16.0188 16.8938C16.5111 16.4016 17.1788 16.125 17.875 16.125H18.75C19.2141 16.125 19.6592 16.3094 19.9874 16.6376C20.3156 16.9658 20.5 17.4109 20.5 17.875V30.125C20.5 30.5891 20.3156 31.0342 19.9874 31.3624C19.6592 31.6906 19.2141 31.875 18.75 31.875Z" fill="#1976D2"/>
<path d="M34.5 19.625V28.375C35.1956 28.3729 35.862 28.0957 36.3539 27.6039C36.8457 27.112 37.1229 26.4456 37.125 25.75V22.25C37.1229 21.5544 36.8457 20.888 36.3539 20.3961C35.862 19.9043 35.1956 19.6271 34.5 19.625V19.625Z" fill="#1976D2"/>
<path opacity="0.4" d="M30.125 31.875H29.25C28.7859 31.875 28.3408 31.6906 28.0126 31.3624C27.6844 31.0342 27.5 30.5891 27.5 30.125V17.875C27.5 17.4109 27.6844 16.9658 28.0126 16.6376C28.3408 16.3094 28.7859 16.125 29.25 16.125H30.125C30.8212 16.125 31.4889 16.4016 31.9812 16.8938C32.4734 17.3861 32.75 18.0538 32.75 18.75V29.25C32.75 29.9462 32.4734 30.6139 31.9812 31.1062C31.4889 31.5984 30.8212 31.875 30.125 31.875V31.875Z" fill="#1976D2"/>
</svg>
