<svg width="140" height="44" viewBox="0 0 140 44" fill="none" xmlns="http://www.w3.org/2000/svg">
<g clip-path="url(#clip0_23199_329102)">
<path d="M8.06762 15.9556C8.06705 14.3605 8.5385 12.8004 9.42337 11.4692C10.3082 10.1381 11.5675 9.09459 13.0446 8.46846C14.5217 7.84232 16.1516 7.66117 17.7315 7.94752C19.3114 8.23387 20.7718 8.97509 21.931 10.079C23.0903 11.183 23.8973 12.601 24.2517 14.1568C24.6062 15.7125 24.4924 17.3375 23.9246 18.8296C23.3569 20.3216 22.3601 21.6151 21.0582 22.5491C19.7563 23.4831 18.2067 24.0165 16.6021 24.083C16.5155 24.0855 16.4332 24.1212 16.3724 24.1825C16.3116 24.2438 16.277 24.326 16.2757 24.4121V31.5123C16.2757 31.5584 16.285 31.6039 16.303 31.6463C16.3211 31.6887 16.3475 31.7271 16.3807 31.7592C16.414 31.7913 16.4533 31.8164 16.4965 31.8331C16.5397 31.8498 16.5859 31.8577 16.6322 31.8564C19.7853 31.7457 22.8358 30.7153 25.4031 28.8938C27.9704 27.0722 29.9408 24.5402 31.0685 21.6135C32.1962 18.6869 32.4312 15.4952 31.7443 12.4368C31.0573 9.37832 29.4788 6.58847 27.2057 4.4153C24.9326 2.24214 22.0655 0.781884 18.9622 0.216725C15.8588 -0.348433 12.6566 0.00652831 9.75507 1.23732C6.85353 2.46812 4.38114 4.52025 2.64635 7.13769C0.911558 9.75512 -0.00881378 12.822 6.3619e-05 15.9556V42.5815C-0.000144228 42.6565 0.0177448 42.7304 0.0522304 42.797C0.0867159 42.8637 0.136792 42.9212 0.19826 42.9646C0.259727 43.0081 0.330792 43.0363 0.405496 43.0468C0.480199 43.0574 0.556362 43.05 0.627596 43.0253L14.0568 38.3932C14.1358 38.3655 14.2042 38.3142 14.2527 38.2463C14.3013 38.1785 14.3275 38.0974 14.3279 38.0142V32.4746C14.3279 32.4395 14.3208 32.4047 14.3072 32.3724C14.2935 32.34 14.2734 32.3106 14.2482 32.286C14.2229 32.2614 14.193 32.242 14.1602 32.229C14.1273 32.2161 14.0922 32.2097 14.0568 32.2104H8.3337C8.29875 32.2104 8.26416 32.2035 8.23187 32.1903C8.19959 32.177 8.17026 32.1575 8.14555 32.133C8.12085 32.1084 8.10125 32.0793 8.08788 32.0472C8.0745 32.0152 8.06762 31.9808 8.06762 31.9461V15.9556Z" fill="#1976D2"/>
<path d="M55.1675 12.6251C54.2839 12.1671 53.2973 11.9405 52.301 11.9669H44.1079V27.8627H47.6221V22.5774H52.311C53.3082 22.6007 54.2949 22.3707 55.1776 21.9093C55.9783 21.4817 56.64 20.8366 57.0853 20.0494C57.5416 19.1939 57.7649 18.2348 57.7329 17.2672C57.7551 16.2969 57.5215 15.3378 57.0552 14.4849C56.614 13.7014 55.9599 13.057 55.1675 12.6251V12.6251ZM53.4255 18.9475C52.8793 19.3536 52.2031 19.5485 51.5228 19.496H47.6121V15.0533H51.5228C52.2031 15.0008 52.8793 15.1957 53.4255 15.6018C53.647 15.8164 53.8181 16.077 53.9266 16.3649C54.0351 16.6527 54.0782 16.9608 54.053 17.2672C54.0805 17.5759 54.0385 17.8869 53.9299 18.1776C53.8214 18.4682 53.6491 18.7312 53.4255 18.9475V18.9475Z" fill="#101840"/>
<path d="M71.8702 12.7244C70.6172 12.041 69.2107 11.6826 67.7812 11.6826C66.3516 11.6826 64.9452 12.041 63.6922 12.7244C62.5195 13.416 61.5649 14.4194 60.936 15.6214C60.2501 16.9465 59.9051 18.4197 59.932 19.9095C59.9003 21.3936 60.2365 22.8628 60.9109 24.1876C61.5382 25.3864 62.4913 26.3866 63.662 27.0745C64.909 27.7933 66.3324 28.154 67.7736 28.1166C69.2142 28.1481 70.636 27.7877 71.8852 27.0745C73.0633 26.3849 74.0233 25.3814 74.6564 24.1776C75.343 22.8527 75.6879 21.3793 75.6605 19.8895C75.6892 18.4027 75.3441 16.9323 74.6564 15.6114C74.0155 14.4109 73.0507 13.4112 71.8702 12.7244V12.7244ZM71.4284 22.4873C71.1337 23.1765 70.6414 23.7644 70.0127 24.1776C69.3407 24.5878 68.562 24.7925 67.7736 24.7659C66.9904 24.7878 66.2171 24.5871 65.5446 24.1876C64.911 23.7837 64.4143 23.2 64.1189 22.5122C63.7641 21.6838 63.5929 20.7894 63.6169 19.8895C63.5918 18.9928 63.7631 18.1013 64.1189 17.2768C64.416 16.5927 64.9126 16.0126 65.5446 15.6114C66.2231 15.2304 66.9892 15.0301 67.7686 15.0301C68.548 15.0301 69.3141 15.2304 69.9926 15.6114C70.6193 16.016 71.1118 16.5953 71.4083 17.2768C71.7615 18.1021 71.9327 18.993 71.9103 19.8895C71.9372 20.7796 71.7729 21.6652 71.4284 22.4873V22.4873Z" fill="#101840"/>
<path d="M88.4217 24.0878C87.6726 24.5592 86.7979 24.7955 85.9116 24.7659C85.1304 24.7853 84.3601 24.5811 83.6927 24.1775C83.0526 23.769 82.5493 23.1806 82.2468 22.4872C81.8921 21.6746 81.7207 20.7947 81.7448 19.9094C81.7224 19.0145 81.8936 18.1252 82.2468 17.3016C82.5466 16.6147 83.049 16.034 83.6876 15.6363C84.3631 15.2347 85.1397 15.0323 85.9267 15.0529C86.7828 15.0243 87.6283 15.2481 88.3565 15.6961C89.0139 16.1293 89.4875 16.7878 89.6868 17.546H93.3767C93.2428 16.4263 92.8171 15.3608 92.1417 14.4546C91.4729 13.5746 90.5926 12.8752 89.5814 12.4202C88.4534 11.9248 87.2301 11.6798 85.997 11.7022C84.5413 11.6701 83.1033 12.0228 81.8301 12.7244C80.6411 13.3931 79.6718 14.3887 79.0389 15.5914C78.3468 16.9322 78.0017 18.423 78.0348 19.9293C77.9977 21.4352 78.3248 22.9279 78.9887 24.2822C79.5891 25.4724 80.5305 26.4595 81.6946 27.1193C82.9649 27.8118 84.3978 28.156 85.8463 28.1165C87.09 28.1356 88.323 27.8872 89.4609 27.3886C90.4949 26.9273 91.3971 26.2179 92.0865 25.3243C92.7806 24.4212 93.2316 23.3572 93.3968 22.2329H89.7621C89.5649 22.9961 89.0866 23.658 88.4217 24.0878V24.0878Z" fill="#101840"/>
<path d="M110.406 11.9619H106.274L100.501 19.5608V11.9619H96.9915V27.8627H100.501V24.8211L102.885 21.7198L106.404 27.8627H110.451L105.169 18.763L110.406 11.9619Z" fill="#101840"/>
<path d="M113.774 27.8627H123.94V24.6367H117.278V21.3508H123.187V18.2993H117.278V15.183H123.94V11.9619H113.774V27.8627Z" fill="#101840"/>
<path d="M140 11.9619H127.409V15.183H131.953V27.8627H135.457V15.183H140V11.9619Z" fill="#101840"/>
</g>
<defs>
<clipPath id="clip0_23199_329102">
<rect width="140" height="43.0303" fill="white"/>
</clipPath>
</defs>
</svg>
