<svg width="29" height="38" viewBox="0 0 29 38" fill="none" xmlns="http://www.w3.org/2000/svg">
<path d="M7.14561 14.09C7.1451 12.6814 7.56267 11.3036 8.34641 10.1281C9.13015 8.95257 10.2455 8.03105 11.5538 7.47811C12.8621 6.92517 14.3057 6.7652 15.705 7.01808C17.1044 7.27095 18.3979 7.92552 19.4246 8.90042C20.4514 9.87532 21.1662 11.1276 21.4801 12.5015C21.794 13.8754 21.6933 15.3103 21.1904 16.628C20.6875 17.9457 19.8046 19.0879 18.6515 19.9127C17.4984 20.7376 16.1259 21.2086 14.7047 21.2673C14.628 21.2695 14.5551 21.301 14.5013 21.3552C14.4474 21.4093 14.4168 21.4819 14.4157 21.5579V27.8281C14.4156 27.8688 14.4239 27.909 14.4398 27.9465C14.4558 27.9839 14.4792 28.0178 14.5086 28.0461C14.5381 28.0745 14.573 28.0967 14.6112 28.1114C14.6495 28.1261 14.6903 28.1331 14.7314 28.1319C17.5241 28.0342 20.226 27.1243 22.4999 25.5157C24.7738 23.9071 26.519 21.671 27.5178 19.0865C28.5166 16.502 28.7248 13.6835 28.1164 10.9825C27.5079 8.28161 26.1098 5.8179 24.0965 3.89878C22.0832 1.97966 19.5437 0.690112 16.7951 0.191021C14.0464 -0.30807 11.2101 0.00539652 8.6402 1.09231C6.07027 2.17922 3.88043 3.99146 2.34391 6.30291C0.80738 8.61437 -0.0078065 11.3227 5.63482e-05 14.09V37.6033C-0.000127744 37.6695 0.0157169 37.7348 0.0462612 37.7936C0.0768055 37.8525 0.121159 37.9032 0.175601 37.9416C0.230044 37.98 0.292987 38.0049 0.359153 38.0142C0.425319 38.0236 0.492778 38.017 0.555871 37.9952L12.4503 33.9046C12.5203 33.8801 12.5809 33.8348 12.6239 33.7749C12.6668 33.715 12.6901 33.6434 12.6904 33.5699V28.6779C12.6904 28.6469 12.6842 28.6162 12.6721 28.5876C12.6599 28.559 12.6422 28.5331 12.6198 28.5114C12.5975 28.4896 12.571 28.4725 12.5419 28.4611C12.5127 28.4496 12.4816 28.444 12.4503 28.4446H7.38127C7.35033 28.4446 7.31968 28.4385 7.29109 28.4268C7.2625 28.4151 7.23652 28.3979 7.21463 28.3762C7.19275 28.3545 7.17539 28.3288 7.16355 28.3005C7.1517 28.2722 7.14561 28.2418 7.14561 28.2112V14.09Z" fill="#1976D2"/>
</svg>
