<svg width="1880" height="720" viewBox="0 0 1880 720" fill="none" xmlns="http://www.w3.org/2000/svg">
<path d="M0 60C0 26.8629 26.8629 0 60 0H1820C1853.14 0 1880 26.8629 1880 60V660C1880 693.137 1853.14 720 1820 720H60C26.8629 720 0 693.137 0 660V60Z" fill="white"/>
<mask id="mask0_23199_329550" style="mask-type:alpha" maskUnits="userSpaceOnUse" x="0" y="0" width="1880" height="720">
<path d="M0 60C0 26.8629 26.8629 0 60 0H1820C1853.14 0 1880 26.8629 1880 60V660C1880 693.137 1853.14 720 1820 720H60C26.8629 720 0 693.137 0 660V60Z" fill="white"/>
</mask>
<g mask="url(#mask0_23199_329550)">
<g opacity="0.2" filter="url(#filter0_f_23199_329550)">
<ellipse cx="433" cy="462.5" rx="673" ry="644.5" fill="#CBB3F5"/>
</g>
<g opacity="0.1" filter="url(#filter1_f_23199_329550)">
<ellipse cx="1447" cy="462.5" rx="673" ry="644.5" fill="#60B0FF"/>
</g>
<path opacity="0.04" d="M1483.54 275.782C1483.53 251.28 1490.75 227.316 1504.3 206.868C1517.85 186.42 1537.13 170.391 1559.75 160.773C1582.37 151.155 1607.33 148.373 1631.52 152.771C1655.71 157.17 1678.08 168.556 1695.83 185.513C1713.58 202.471 1725.94 224.253 1731.37 248.151C1736.79 272.049 1735.05 297.009 1726.36 319.929C1717.66 342.849 1702.4 362.717 1682.46 377.065C1662.53 391.412 1638.8 399.605 1614.23 400.626C1612.9 400.666 1611.64 401.213 1610.71 402.155C1609.78 403.097 1609.25 404.36 1609.23 405.681V514.748C1609.23 515.455 1609.37 516.155 1609.65 516.806C1609.92 517.457 1610.33 518.047 1610.84 518.54C1611.35 519.033 1611.95 519.419 1612.61 519.675C1613.27 519.931 1613.98 520.053 1614.69 520.032C1662.97 518.332 1709.68 502.505 1749 474.524C1788.31 446.544 1818.48 407.649 1835.75 362.693C1853.02 317.738 1856.62 268.711 1846.1 221.73C1835.58 174.749 1811.41 131.895 1776.6 98.5131C1741.79 65.1313 1697.89 42.7005 1650.37 34.0191C1602.85 25.3378 1553.81 30.7903 1509.38 49.6964C1464.95 68.6025 1427.09 100.125 1400.52 140.331C1373.96 180.537 1359.87 227.647 1360 275.782V684.781C1360 685.932 1360.27 687.067 1360.8 688.091C1361.33 689.115 1362.09 689.998 1363.04 690.665C1363.98 691.333 1365.07 691.766 1366.21 691.928C1367.35 692.09 1368.52 691.977 1369.61 691.597L1575.25 620.444C1576.46 620.018 1577.51 619.23 1578.25 618.188C1578.99 617.146 1579.4 615.901 1579.4 614.623V529.53C1579.4 528.99 1579.29 528.456 1579.08 527.958C1578.88 527.461 1578.57 527.01 1578.18 526.632C1577.8 526.254 1577.34 525.957 1576.83 525.757C1576.33 525.558 1575.79 525.46 1575.25 525.47H1487.61C1487.08 525.47 1486.55 525.365 1486.05 525.161C1485.56 524.957 1485.11 524.658 1484.73 524.281C1484.35 523.905 1484.05 523.457 1483.85 522.965C1483.64 522.472 1483.54 521.944 1483.54 521.411V275.782Z" fill="#1976D2"/>
</g>
<defs>
<filter id="filter0_f_23199_329550" x="-440" y="-382" width="1746" height="1689" filterUnits="userSpaceOnUse" color-interpolation-filters="sRGB">
<feFlood flood-opacity="0" result="BackgroundImageFix"/>
<feBlend mode="normal" in="SourceGraphic" in2="BackgroundImageFix" result="shape"/>
<feGaussianBlur stdDeviation="100" result="effect1_foregroundBlur_23199_329550"/>
</filter>
<filter id="filter1_f_23199_329550" x="574" y="-382" width="1746" height="1689" filterUnits="userSpaceOnUse" color-interpolation-filters="sRGB">
<feFlood flood-opacity="0" result="BackgroundImageFix"/>
<feBlend mode="normal" in="SourceGraphic" in2="BackgroundImageFix" result="shape"/>
<feGaussianBlur stdDeviation="100" result="effect1_foregroundBlur_23199_329550"/>
</filter>
</defs>
</svg>
