<svg width="48" height="48" viewBox="0 0 48 48" fill="none" xmlns="http://www.w3.org/2000/svg">
<rect opacity="0.3" width="48" height="48" rx="8" fill="#D3F2F3"/>
<path d="M34.4643 11.165H31.0343C29.5527 11.165 28.666 12.0517 28.666 13.5334V16.9634C28.666 18.445 29.5527 19.3317 31.0343 19.3317H34.4643C35.946 19.3317 36.8327 18.445 36.8327 16.9634V13.5334C36.8327 12.0517 35.946 11.165 34.4643 11.165ZM34.721 15.0267C34.581 15.1667 34.3943 15.2367 34.2077 15.2367C34.021 15.2367 33.8343 15.1667 33.6943 15.0267L33.4843 14.8167V17.43C33.4843 17.8384 33.1577 18.165 32.7493 18.165C32.341 18.165 32.0143 17.8384 32.0143 17.43V14.8167L31.8043 15.0267C31.5243 15.3067 31.0577 15.3067 30.7777 15.0267C30.4977 14.7467 30.4977 14.28 30.7777 14L32.236 12.5417C32.2943 12.4834 32.376 12.4367 32.4577 12.4017C32.481 12.39 32.5043 12.39 32.5277 12.3784C32.586 12.355 32.6443 12.3434 32.7143 12.3434C32.7377 12.3434 32.761 12.3434 32.7843 12.3434C32.866 12.3434 32.936 12.355 33.0177 12.39C33.0293 12.39 33.0293 12.39 33.041 12.39C33.1227 12.425 33.1927 12.4717 33.251 12.53C33.2627 12.5417 33.2627 12.5417 33.2743 12.5417L34.7327 14C35.0127 14.28 35.0127 14.7467 34.721 15.0267Z" fill="#5DD6DC"/>
<path opacity="0.4" d="M35.6673 19.0681V20.5031H12.334V18.7997C12.334 16.1281 14.504 13.9697 17.1757 13.9697H28.6673V16.9681C28.6673 18.4497 29.554 19.3364 31.0357 19.3364H34.4657C34.9323 19.3364 35.329 19.2547 35.6673 19.0681Z" fill="#5DD6DC"/>
<path d="M12.334 20.5V29.2033C12.334 31.875 14.504 34.0333 17.1757 34.0333H30.8257C33.4973 34.0333 35.6673 31.875 35.6673 29.2033V20.5H12.334ZM19.334 30.125H17.0007C16.5223 30.125 16.1257 29.7283 16.1257 29.25C16.1257 28.7717 16.5223 28.375 17.0007 28.375H19.334C19.8123 28.375 20.209 28.7717 20.209 29.25C20.209 29.7283 19.8123 30.125 19.334 30.125ZM26.9173 30.125H22.2507C21.7723 30.125 21.3757 29.7283 21.3757 29.25C21.3757 28.7717 21.7723 28.375 22.2507 28.375H26.9173C27.3957 28.375 27.7923 28.7717 27.7923 29.25C27.7923 29.7283 27.3957 30.125 26.9173 30.125Z" fill="#5DD6DC"/>
</svg>
