<svg width="180" height="86" viewBox="0 0 180 86" fill="none" xmlns="http://www.w3.org/2000/svg">
<path fill-rule="evenodd" clip-rule="evenodd" d="M159.231 43.6154C159.231 33.7693 154.462 26 145.346 26C136.192 26 130.654 33.7693 130.654 43.5385C130.654 55.1154 137.192 60.9616 146.577 60.9616C151.154 60.9616 154.615 59.9231 157.231 58.4616V50.7693C154.615 52.077 151.615 52.8847 147.808 52.8847C144.077 52.8847 140.769 51.577 140.346 47.0385H159.154C159.154 46.5385 159.231 44.5385 159.231 43.6154ZM140.231 39.9616C140.231 35.6154 142.885 33.8077 145.308 33.8077C147.654 33.8077 150.154 35.6154 150.154 39.9616H140.231ZM115.808 26C112.039 26 109.615 27.7693 108.269 29L107.769 26.6154H99.3078V71.4616L108.923 69.4231L108.962 58.5385C110.346 59.5385 112.385 60.9616 115.769 60.9616C122.654 60.9616 128.923 55.4231 128.923 43.2308C128.885 32.077 122.539 26 115.808 26ZM113.5 52.5C111.231 52.5 109.885 51.6923 108.962 50.6923L108.923 36.4231C109.923 35.3077 111.308 34.5385 113.5 34.5385C117 34.5385 119.423 38.4616 119.423 43.5C119.423 48.6539 117.039 52.5 113.5 52.5ZM86.077 23.7308L95.7308 21.6539V13.8462L86.077 15.8847V23.7308ZM86.077 26.6539H95.7308V60.3077H86.077V26.6539ZM75.7308 29.5L75.1154 26.6539H66.8078V60.3077H76.4231V37.5C78.6924 34.5385 82.5385 35.077 83.7308 35.5V26.6539C82.5001 26.1923 78.0001 25.3462 75.7308 29.5ZM56.5001 18.3077L47.1154 20.3077L47.077 51.1154C47.077 56.8077 51.3462 61 57.0385 61C60.1924 61 62.5001 60.4231 63.7693 59.7308V51.9231C62.5385 52.4231 56.4616 54.1923 56.4616 48.5V34.8462H63.7693V26.6539H56.4616L56.5001 18.3077ZM30.5001 36.4231C30.5001 34.9231 31.7308 34.3462 33.7693 34.3462C36.6924 34.3462 40.3847 35.2308 43.3078 36.8077V27.7693C40.1154 26.5 36.9616 26 33.7693 26C25.9616 26 20.7693 30.077 20.7693 36.8847C20.7693 47.5 35.3847 45.8077 35.3847 50.3847C35.3847 52.1539 33.8462 52.7308 31.6924 52.7308C28.5001 52.7308 24.4231 51.4231 21.1924 49.6539V58.8077C24.7693 60.3462 28.3847 61 31.6924 61C39.6924 61 45.1924 57.0385 45.1924 50.1539C45.1539 38.6923 30.5001 40.7308 30.5001 36.4231Z" fill="white"/>
</svg>
