<svg width="48" height="48" viewBox="0 0 48 48" fill="none" xmlns="http://www.w3.org/2000/svg">
<rect opacity="0.3" width="48" height="48" rx="8" fill="#D4F5D4"/>
<path opacity="0.4" d="M28.889 12.335H19.1123C14.8657 12.335 12.334 14.8666 12.334 19.1133V28.8783C12.334 33.1366 14.8657 35.6683 19.1123 35.6683H28.8773C33.124 35.6683 35.6556 33.1366 35.6556 28.89V19.1133C35.6673 14.8666 33.1357 12.335 28.889 12.335Z" fill="#53C750"/>
<path d="M28.375 21.375H19.625C19.1467 21.375 18.75 20.9783 18.75 20.5C18.75 20.0217 19.1467 19.625 19.625 19.625H28.375C28.8533 19.625 29.25 20.0217 29.25 20.5C29.25 20.9783 28.8533 21.375 28.375 21.375Z" fill="#53C750"/>
<path d="M28.375 28.375H19.625C19.1467 28.375 18.75 27.9783 18.75 27.5C18.75 27.0217 19.1467 26.625 19.625 26.625H28.375C28.8533 26.625 29.25 27.0217 29.25 27.5C29.25 27.9783 28.8533 28.375 28.375 28.375Z" fill="#53C750"/>
</svg>
