<svg width="72" height="72" viewBox="0 0 72 72" fill="none" xmlns="http://www.w3.org/2000/svg">
<circle opacity="0.9" cx="36" cy="36" r="36" fill="#D6DAED"/>
<g filter="url(#filter0_di_23260_328556)">
<path d="M38.5915 23.1663L41.2312 28.4893C41.5911 29.2303 42.551 29.9411 43.3609 30.0772L48.1454 30.8786C51.2051 31.3928 51.925 33.6309 49.7202 35.8387L46.0006 39.5891C45.3707 40.2242 45.0257 41.4491 45.2207 42.3262L46.2856 46.9687C47.1255 50.6435 45.1907 52.065 41.9661 50.1444L37.4816 47.4678C36.6717 46.9839 35.3368 46.9839 34.5119 47.4678L30.0274 50.1444C26.8178 52.065 24.868 50.6283 25.7079 46.9687L26.7728 42.3262C26.9677 41.4491 26.6228 40.2242 25.9928 39.5891L22.2733 35.8387C20.0835 33.6309 20.7884 31.3928 23.8481 30.8786L28.6326 30.0772C29.4275 29.9411 30.3874 29.2303 30.7473 28.4893L33.387 23.1663C34.8269 20.2779 37.1666 20.2779 38.5915 23.1663Z" fill="url(#paint0_linear_23260_328556)"/>
<path d="M37.9188 23.4981L37.9195 23.4995L40.5565 28.817C40.557 28.818 40.5575 28.8191 40.558 28.8201C40.8048 29.3264 41.2273 29.7753 41.6796 30.1118C42.1331 30.4492 42.6843 30.724 43.2366 30.8168L43.237 30.8168L48.0211 31.6183C49.4187 31.8531 50.0278 32.4351 50.1924 32.9514C50.3571 33.4681 50.1978 34.2991 49.1895 35.3088L49.1877 35.3106L45.4681 39.0609C45.0414 39.4912 44.7452 40.0797 44.5799 40.6621C44.4144 41.245 44.3577 41.9 44.4886 42.489L44.4886 42.489L44.4897 42.4939L45.5545 47.1359C45.9604 48.9118 45.6016 49.7596 45.2059 50.0505C44.8132 50.3391 43.9069 50.4274 42.3499 49.5001L37.8663 46.824C37.3169 46.4957 36.6389 46.3548 36.0024 46.3548C35.3652 46.3548 34.6863 46.496 34.1324 46.8209L34.1324 46.8209L34.1275 46.8238L29.643 49.5004L29.6423 49.5008C28.0964 50.4258 27.1892 50.3361 26.7935 50.045C26.394 49.7511 26.0339 48.9008 26.4389 47.1365L26.4389 47.1364L27.5038 42.4939L27.5038 42.4939L27.5049 42.489C27.6358 41.9 27.5791 41.245 27.4136 40.6621C27.2483 40.0797 26.9521 39.4912 26.5254 39.0609L22.8058 35.3106C21.8042 34.3007 21.6429 33.4685 21.8071 32.95C21.9704 32.4344 22.5754 31.8531 23.972 31.6183C23.9721 31.6183 23.9722 31.6183 23.9724 31.6183L28.7565 30.8169L28.7591 30.8164C29.3048 30.723 29.8519 30.4473 30.3021 30.1108C30.7517 29.7747 31.1738 29.3261 31.4205 28.82L34.0583 23.5009C34.0584 23.5006 34.0585 23.5004 34.0586 23.5002C34.7257 22.1623 35.4713 21.75 35.9949 21.75C36.5171 21.75 37.2591 22.1607 37.9188 23.4981Z" stroke="white" stroke-opacity="0.95" stroke-width="1.5"/>
</g>
<defs>
<filter id="filter0_di_23260_328556" x="21" y="21" width="30" height="32" filterUnits="userSpaceOnUse" color-interpolation-filters="sRGB">
<feFlood flood-opacity="0" result="BackgroundImageFix"/>
<feColorMatrix in="SourceAlpha" type="matrix" values="0 0 0 0 0 0 0 0 0 0 0 0 0 0 0 0 0 0 127 0" result="hardAlpha"/>
<feOffset dy="1.5"/>
<feComposite in2="hardAlpha" operator="out"/>
<feColorMatrix type="matrix" values="0 0 0 0 0 0 0 0 0 0 0 0 0 0 0 0 0 0 0.06 0"/>
<feBlend mode="normal" in2="BackgroundImageFix" result="effect1_dropShadow_23260_328556"/>
<feBlend mode="normal" in="SourceGraphic" in2="effect1_dropShadow_23260_328556" result="shape"/>
<feColorMatrix in="SourceAlpha" type="matrix" values="0 0 0 0 0 0 0 0 0 0 0 0 0 0 0 0 0 0 127 0" result="hardAlpha"/>
<feOffset dy="2"/>
<feGaussianBlur stdDeviation="1.5"/>
<feComposite in2="hardAlpha" operator="arithmetic" k2="-1" k3="1"/>
<feColorMatrix type="matrix" values="0 0 0 0 0 0 0 0 0 0 0 0 0 0 0 0 0 0 0.08 0"/>
<feBlend mode="normal" in2="shape" result="effect2_innerShadow_23260_328556"/>
</filter>
<linearGradient id="paint0_linear_23260_328556" x1="36" y1="21" x2="36" y2="51" gradientUnits="userSpaceOnUse">
<stop stop-color="#878EB4"/>
<stop offset="1" stop-color="#B1B4C5"/>
</linearGradient>
</defs>
</svg>
