<svg width="72" height="72" viewBox="0 0 72 72" fill="none" xmlns="http://www.w3.org/2000/svg">
<circle opacity="0.9" cx="36" cy="36" r="36" fill="white"/>
<path d="M43.4746 54.4871L42.8687 37.3127C42.25 37.8882 41.6007 38.3967 40.9208 38.8383C37.0076 41.5494 32.2228 42.3543 27.7698 41.3284L27.3156 54.3769C27.2515 56.217 29.2529 57.4257 30.8592 56.5101L34.3452 54.521C35.0976 54.0783 36.0678 54.112 36.8211 54.6072L39.8005 56.5868C41.4211 57.6649 43.5744 56.4334 43.4746 54.4871Z" fill="#EA884A"/>
<path d="M52 31C52 34.3143 51.0171 37.3543 49.3257 39.8915C46.8571 43.5486 42.9486 46.1314 38.4 46.7943C37.6229 46.9314 36.8229 47 36 47C35.1771 47 34.3771 46.9314 33.6 46.7943C29.0514 46.1314 25.1429 43.5486 22.6743 39.8915C20.9829 37.3543 20 34.3143 20 31C20 22.1543 27.1543 15 36 15C44.8457 15 52 22.1543 52 31Z" fill="#FDCF44"/>
<g filter="url(#filter0_di_23260_328533)">
<path d="M37.6794 22.3711L39.4489 25.7418C39.6888 26.1988 40.3186 26.6558 40.8884 26.7415L44.0973 27.2557C46.1367 27.5699 46.6165 28.9982 45.147 30.3978L42.6578 32.7687C42.238 33.1686 41.998 33.9399 42.148 34.5112L42.8678 37.4534C43.4376 39.7671 42.148 40.6812 39.9887 39.4529L36.9897 37.7676C36.4499 37.4533 35.5501 37.4533 35.0103 37.7676L32.0113 39.4529C29.852 40.6526 28.5624 39.7671 29.1323 37.4534L29.852 34.5112C29.972 33.9685 29.762 33.1686 29.3422 32.7687L26.853 30.3978C25.3835 28.9982 25.8633 27.5985 27.9027 27.2557L31.1116 26.7415C31.6514 26.6558 32.2812 26.1988 32.5211 25.7418L34.2906 22.3711C35.1603 20.543 36.7198 20.543 37.6794 22.3711Z" fill="url(#paint0_linear_23260_328533)"/>
<path d="M43.9787 27.9963L43.9831 27.9969C44.8854 28.136 45.1665 28.4776 45.2268 28.6577C45.2831 28.8262 45.2719 29.2431 44.6297 29.8548L42.1406 32.2256L42.6578 32.7687L42.1405 32.2256C41.8167 32.5341 41.5931 32.9501 41.4705 33.3613C41.3486 33.7699 41.3048 34.2465 41.4208 34.6948L42.1392 37.6316L42.1395 37.6327C42.4061 38.7152 42.1405 39.0839 42.022 39.1667C41.8789 39.2667 41.3827 39.383 40.3595 38.801L40.3561 38.799L37.3614 37.1161C36.9489 36.8777 36.452 36.7819 36 36.7819C35.548 36.7819 35.0511 36.8777 34.6386 37.1161L31.647 38.7973C31.6466 38.7975 31.6461 38.7978 31.6456 38.7981C30.6214 39.3668 30.1216 39.2553 29.9752 39.154C29.8603 39.0745 29.5937 38.716 29.8605 37.6327L29.8608 37.6316L30.5805 34.6894L30.5825 34.6813L30.5843 34.6731C30.6774 34.252 30.6359 33.7874 30.5212 33.3821C30.4067 32.9778 30.1944 32.5446 29.8595 32.2256L29.3626 32.7473L29.8594 32.2256L27.3703 29.8548C26.7251 29.2403 26.7183 28.8315 26.7728 28.6698C26.8331 28.4908 27.1163 28.149 28.0243 27.9958L31.2292 27.4823C31.2295 27.4822 31.2298 27.4822 31.2301 27.4821C31.2302 27.4821 31.2302 27.4821 31.2303 27.4821C31.6446 27.4161 32.0439 27.2204 32.3648 26.9912C32.6848 26.7626 32.9957 26.4514 33.1852 26.0904L34.9546 22.7197L34.9615 22.7066L34.9678 22.6933C35.342 21.9068 35.7455 21.75 35.9513 21.75C36.169 21.75 36.5963 21.9214 37.0154 22.7197L37.6794 22.3711L37.0154 22.7197L38.7848 26.0904C38.9747 26.4521 39.2866 26.7643 39.6132 26.9942C39.941 27.225 40.3472 27.4178 40.7729 27.4826L43.9787 27.9963Z" stroke="white" stroke-opacity="0.95" stroke-width="1.5"/>
</g>
<defs>
<filter id="filter0_di_23260_328533" x="26" y="21" width="20" height="21" filterUnits="userSpaceOnUse" color-interpolation-filters="sRGB">
<feFlood flood-opacity="0" result="BackgroundImageFix"/>
<feColorMatrix in="SourceAlpha" type="matrix" values="0 0 0 0 0 0 0 0 0 0 0 0 0 0 0 0 0 0 127 0" result="hardAlpha"/>
<feOffset dy="1.5"/>
<feComposite in2="hardAlpha" operator="out"/>
<feColorMatrix type="matrix" values="0 0 0 0 0 0 0 0 0 0 0 0 0 0 0 0 0 0 0.06 0"/>
<feBlend mode="normal" in2="BackgroundImageFix" result="effect1_dropShadow_23260_328533"/>
<feBlend mode="normal" in="SourceGraphic" in2="effect1_dropShadow_23260_328533" result="shape"/>
<feColorMatrix in="SourceAlpha" type="matrix" values="0 0 0 0 0 0 0 0 0 0 0 0 0 0 0 0 0 0 127 0" result="hardAlpha"/>
<feOffset dy="2"/>
<feGaussianBlur stdDeviation="1.5"/>
<feComposite in2="hardAlpha" operator="arithmetic" k2="-1" k3="1"/>
<feColorMatrix type="matrix" values="0 0 0 0 0 0 0 0 0 0 0 0 0 0 0 0 0 0 0.08 0"/>
<feBlend mode="normal" in2="shape" result="effect2_innerShadow_23260_328533"/>
</filter>
<linearGradient id="paint0_linear_23260_328533" x1="36" y1="21" x2="36" y2="40" gradientUnits="userSpaceOnUse">
<stop stop-color="#EE7E4E"/>
<stop offset="1" stop-color="#FDCF44"/>
</linearGradient>
</defs>
</svg>
